<?xml version="1.0" encoding="UTF-8"?>
<svg version="1.1" xmlns="http://www.w3.org/2000/svg" width="248" height="156">
<path d="M0 0 C81.84 0 163.68 0 248 0 C248 51.48 248 102.96 248 156 C166.16 156 84.32 156 0 156 C0 104.52 0 53.04 0 0 Z " fill="#016FCF" transform="translate(0,0)"/>
<path d="M0 0 C0.83272934 0.00222061 1.66545868 0.00444122 2.52342224 0.00672913 C3.46432205 0.00680466 4.40522186 0.00688019 5.37463379 0.00695801 C6.39754013 0.01211929 7.42044647 0.01728058 8.47434998 0.02259827 C9.51614914 0.02401321 10.5579483 0.02542816 11.63131714 0.02688599 C14.97355467 0.03250372 18.31572629 0.04505922 21.65794373 0.05775452 C23.91770839 0.06276723 26.17747409 0.06733053 28.4372406 0.07142639 C33.99000054 0.08247891 39.54271094 0.09975542 45.09544373 0.12025452 C46.41544373 3.09025452 47.73544373 6.06025452 49.09544373 9.12025452 C51.42955505 6.25566334 52.78297834 3.56119637 54.09544373 0.12025452 C62.22317794 0.00428603 70.35056521 -0.08449725 78.47892284 -0.13880634 C82.25349383 -0.16487531 86.02749786 -0.20022177 89.80174255 -0.25694275 C93.44574853 -0.31136229 97.08921004 -0.34118634 100.73359108 -0.3541317 C102.122298 -0.36335405 103.51097587 -0.38136401 104.8994503 -0.40839577 C106.84754117 -0.44480619 108.79618264 -0.44678887 110.74461365 -0.44737244 C112.40674141 -0.46402702 112.40674141 -0.46402702 114.10244751 -0.48101807 C118.02442008 0.30687955 119.42255516 2.24438204 122.09544373 5.12025452 C123.08544373 5.12025452 124.07544373 5.12025452 125.09544373 5.12025452 C125.84140808 4.30532532 126.58737244 3.49039612 127.35594177 2.65077209 C130.78879581 -0.52020483 132.32834478 -0.46932916 136.92747498 -0.36802673 C138.21976013 -0.35191345 139.51204529 -0.33580017 140.8434906 -0.31919861 C142.19832529 -0.27742822 143.553143 -0.23510357 144.90794373 -0.19224548 C146.28225239 -0.16714617 147.65660489 -0.14433584 149.0309906 -0.12388611 C152.38692348 -0.06501009 155.74062463 0.01719031 159.09544373 0.12025452 C155.96476074 3.77945272 152.83419326 7.43793897 149.65794373 11.05775452 C149.08044373 11.71646545 148.50294373 12.37517639 147.90794373 13.05384827 C147.30981873 13.73576233 146.71169373 14.41767639 146.09544373 15.12025452 C144.78276223 16.62009568 143.4702564 18.12009063 142.15794373 19.62025452 C141.13711039 20.78692118 140.11627706 21.95358785 139.09544373 23.12025452 C142.75030562 27.39911722 146.43228866 31.64541247 150.18919373 35.83509827 C152.96262553 39.15980648 155.52035799 42.64082319 158.09544373 46.12025452 C154.05719307 46.24431458 150.01968735 46.33480496 145.97996521 46.39491272 C144.60737271 46.41998069 143.23491271 46.45404534 141.86277771 46.49745178 C139.88493676 46.55842983 137.90610189 46.58386461 135.92747498 46.60853577 C134.14433899 46.64781189 134.14433899 46.64781189 132.32518005 46.68788147 C128.20221506 45.96326936 126.7390239 44.26944936 124.09544373 41.12025452 C121.91099469 42.09949029 120.32360821 42.86179216 118.72566509 44.67192554 C116.6380862 46.52658225 115.58667634 46.49111164 112.82440186 46.48101807 C111.95362 46.48514206 111.08283813 46.48926605 110.18566895 46.49351501 C109.2333287 46.48272919 108.28098846 46.47194336 107.29978943 46.46083069 C105.79220566 46.46148781 105.79220566 46.46148781 104.25416565 46.4621582 C100.92632234 46.46006527 97.59898047 46.43671002 94.27122498 46.41322327 C91.96623001 46.40762912 89.66123149 46.40335817 87.35623169 46.40036011 C81.28490884 46.38889713 75.21380077 46.35941726 69.14256287 46.32624817 C62.94915167 46.2955787 56.75570582 46.28186144 50.5622406 46.26673889 C38.4065472 46.23454911 26.25101331 46.18333507 14.09544373 46.12025452 C13.43544373 43.81025452 12.77544373 41.50025452 12.09544373 39.12025452 C8.68929427 39.14151914 8.68929427 39.14151914 5.09544373 40.12025452 C4.10544373 42.10025452 3.11544373 44.08025452 2.09544373 46.12025452 C-5.49455627 46.12025452 -13.08455627 46.12025452 -20.90455627 46.12025452 C-20.19670055 42.58097591 -19.60962266 40.09605814 -18.24635315 36.8966217 C-17.90930359 36.09939697 -17.57225403 35.30217224 -17.22499084 34.48078918 C-16.86143494 33.63478149 -16.49787903 32.7887738 -16.12330627 31.91712952 C-15.74976013 31.03873413 -15.37621399 30.16033875 -14.99134827 29.25532532 C-14.20344734 27.40530103 -13.41323578 25.55625933 -12.62086487 23.70814514 C-11.4038834 20.86868456 -10.19467595 18.02600853 -8.98658752 15.18275452 C-8.22011462 13.38568574 -7.45320284 11.58880406 -6.68580627 9.79212952 C-6.32225037 8.9380249 -5.95869446 8.08392029 -5.5841217 7.20393372 C-5.07854736 6.02700958 -5.07854736 6.02700958 -4.5627594 4.8263092 C-4.26599304 4.13301514 -3.96922668 3.43972107 -3.66346741 2.72541809 C-2.44798529 0.15456686 -2.44798529 0.15456686 0 0 Z " fill="#F6FAFD" transform="translate(51.90455627441406,52.87974548339844)"/>
<path d="M0 0 C81.84 0 163.68 0 248 0 C248 51.48 248 102.96 248 156 C166.16 156 84.32 156 0 156 C0 104.52 0 53.04 0 0 Z M5 10.0625 C2.18904205 14.1910945 0.75147281 16.83685168 0.73930359 21.87568665 C0.73221878 22.85552521 0.72513397 23.83536377 0.71783447 24.84489441 C0.72031189 25.9135524 0.72278931 26.98221039 0.7253418 28.08325195 C0.72023087 29.21375977 0.71511993 30.34426758 0.70985413 31.5090332 C0.69593623 35.25216951 0.69691681 38.99512211 0.69921875 42.73828125 C0.69533258 45.33896452 0.69099807 47.93964717 0.68623352 50.54032898 C0.67876624 55.99525272 0.67892779 61.45010516 0.68432617 66.9050293 C0.69036048 73.20004942 0.67806838 79.49484571 0.6567561 85.78982764 C0.6369795 91.8553496 0.63397089 97.92076732 0.63749123 103.98631859 C0.63697797 106.56229363 0.63173941 109.13827223 0.62167931 111.71422768 C0.60933056 115.31918132 0.61609824 118.92361894 0.62768555 122.52856445 C0.62004181 123.59114975 0.61239807 124.65373505 0.60452271 125.7485199 C0.65601743 133.00399045 1.46663746 137.97403919 6.25 143.6875 C12.34571572 148.81344276 16.70343079 150.5986868 24.51911926 150.5146637 C25.76707426 150.52508199 25.76707426 150.52508199 27.04024047 150.53571075 C29.81461982 150.55393645 32.58813977 150.54372886 35.36254883 150.53344727 C37.35718931 150.54050809 39.35182443 150.54925379 41.34645081 150.55955505 C46.75571404 150.58204328 52.16468459 150.57911012 57.57397676 150.57023358 C62.09421764 150.56511972 66.61440372 150.57241971 71.13463897 150.57970566 C81.80212908 150.59670372 92.46947616 150.59314068 103.13696289 150.57641602 C114.13028143 150.55950295 125.12320266 150.57531843 136.11647779 150.6076389 C145.56470987 150.63436129 155.01281848 150.64160337 164.46108454 150.63312382 C170.0997087 150.62820136 175.73809396 150.63037319 181.376688 150.65091133 C186.68168615 150.6693093 191.98611458 150.66325911 197.29108238 150.63871193 C199.23324171 150.63371672 201.17544474 150.63716013 203.11756897 150.64986038 C217.37893822 150.99186048 217.37893822 150.99186048 230 145 C236.83860529 137.8574974 237.29920449 129.72213784 237.29052734 120.26635742 C237.29724457 119.2085054 237.30396179 118.15065338 237.31088257 117.06074524 C237.32982681 113.57560484 237.33378498 110.09065739 237.3359375 106.60546875 C237.34236784 104.17320172 237.34909638 101.74093546 237.35610962 99.30867004 C237.36807342 94.21381843 237.37179135 89.11903458 237.37060547 84.02416992 C237.37040232 77.51102856 237.3977046 70.99832373 237.43214989 64.48528576 C237.454439 59.4622449 237.45844238 54.43930877 237.45738602 49.41622353 C237.45973893 47.01576546 237.46854485 44.61530438 237.48405075 42.21489525 C237.50375083 38.85023202 237.49785616 35.48650603 237.48583984 32.12182617 C237.49707886 31.14019501 237.50831787 30.15856384 237.51989746 29.14718628 C237.45452453 21.90629075 236.24576615 14.68324824 231.30853844 9.08055401 C225.22260172 3.38125631 218.79366803 1.5477224 210.59477234 1.60559082 C209.775053 1.59949972 208.95533366 1.59340861 208.11077434 1.58713293 C205.37798726 1.57055172 202.64566862 1.57527174 199.9128418 1.58007812 C197.94775918 1.57273491 195.98268087 1.56414794 194.01760864 1.55441284 C188.68897099 1.5322134 183.36048806 1.52926543 178.03181052 1.53116035 C173.57867972 1.53128014 169.1255816 1.52271251 164.6724599 1.51438284 C154.16320951 1.49515394 143.65403855 1.4922629 133.14477539 1.49902344 C122.31506185 1.50566216 111.48568909 1.48280532 100.65604466 1.44570971 C91.34794871 1.41498669 82.03996222 1.40365556 72.73181659 1.40754652 C67.17701471 1.40961152 61.62247796 1.4041731 56.06772423 1.37965393 C50.84153724 1.35734688 45.61590309 1.3592978 40.38971329 1.37958145 C38.47657273 1.3829846 36.56339467 1.37793248 34.65030479 1.36359787 C18.24629348 1.15088339 18.24629348 1.15088339 5 10.0625 Z " fill="#030303" transform="translate(0,0)"/>
<path d="M0 0 C0.81971934 -0.0060911 1.63943868 -0.01218221 2.483998 -0.01845789 C5.21678508 -0.0350391 7.94910372 -0.03031908 10.68193054 -0.0255127 C12.64701316 -0.03285591 14.61209147 -0.04144288 16.5771637 -0.05117798 C21.90580134 -0.07337742 27.23428428 -0.07632539 32.56296182 -0.07443047 C37.01609262 -0.07431068 41.46919074 -0.08287831 45.92231244 -0.09120798 C56.43156283 -0.11043688 66.94073379 -0.11332792 77.44999695 -0.10656738 C88.27971048 -0.09992866 99.10908325 -0.1227855 109.93872768 -0.15988111 C119.24682363 -0.19060413 128.55481012 -0.20193526 137.86295575 -0.1980443 C143.41775763 -0.1959793 148.97229438 -0.20141772 154.52704811 -0.22593689 C159.7532351 -0.24824394 164.97886925 -0.24629302 170.20505905 -0.22600937 C172.11819961 -0.22260622 174.03137766 -0.22765834 175.94446754 -0.24199295 C195.91028347 -0.3812188 195.91028347 -0.3812188 204.18251514 6.7662735 C210.50987788 13.51965445 211.03669254 21.53527388 210.98295593 30.25744629 C210.99084137 31.8468528 210.99084137 31.8468528 210.99888611 33.46836853 C211.01203381 36.95298226 211.00336562 40.43713496 210.99320984 43.92175293 C210.99523222 46.35498644 210.99814502 48.78821936 211.00190735 51.22145081 C211.00632376 56.31456284 210.99992199 61.40751674 210.98588562 66.50061035 C210.96880352 73.01489081 210.97863343 79.52880016 210.99660301 86.04306698 C211.00746692 91.06607333 211.00398234 96.08899237 210.99621964 101.11200142 C210.99422438 103.51327115 210.99665311 105.91454891 211.00365829 108.31580925 C211.0113145 111.67807752 210.99960922 115.03975316 210.98295593 118.40197754 C210.98902863 119.38563293 210.99510132 120.36928833 211.00135803 121.38275146 C210.93498692 128.65082266 209.64200203 134.79128492 206.03227234 141.14440918 C196.58607314 149.86397767 185.97440038 149.1161011 173.89164734 149.05725098 C171.89656113 149.06567297 169.90148288 149.07620199 167.90641785 149.08866882 C162.50967442 149.11564517 157.11339467 149.11103531 151.71661377 149.09896827 C147.20366798 149.09182064 142.69080704 149.10034722 138.17786789 149.10887367 C127.52899739 149.12880273 116.88035153 149.12328212 106.23149109 149.10119629 C95.2601957 149.07882782 84.28948859 149.09644258 73.31824875 149.13424557 C63.88267927 149.16551044 54.4472916 149.17338628 45.01167679 149.16229182 C39.38312107 149.15581514 33.75490478 149.1577579 28.12638855 149.18161583 C22.83356889 149.20291025 17.54157762 149.19483441 12.24880981 149.16452217 C10.31148861 149.15820981 8.37410269 149.1620191 6.43682861 149.17693329 C-13.06771935 149.31487035 -13.06771935 149.31487035 -20.40522766 142.39440918 C-23.9126921 137.91375064 -25.52206717 133.29656535 -25.55912781 127.64570618 C-25.56772827 126.66868744 -25.57632874 125.6916687 -25.58518982 124.68504333 C-25.58944977 123.61436111 -25.59370972 122.54367889 -25.59809875 121.44055176 C-25.60627625 120.31179626 -25.61445374 119.18304077 -25.62287903 118.02008057 C-25.64773602 114.2763726 -25.66425036 110.53270257 -25.67866516 106.78894043 C-25.68398884 105.51086706 -25.68931252 104.23279369 -25.69479752 102.91599083 C-25.71602784 97.54326444 -25.73515709 92.17055131 -25.74641991 86.7977953 C-25.76264291 79.11055731 -25.79578346 71.42382603 -25.85282075 63.73677903 C-25.89627979 57.67180425 -25.91217403 51.6070273 -25.9185524 45.54190636 C-25.92526782 42.9667265 -25.94049724 40.3915541 -25.96444321 37.81647682 C-25.99607416 34.2090069 -25.9961336 30.60281156 -25.98872375 26.99523926 C-26.00512909 25.93467819 -26.02153442 24.87411713 -26.03843689 23.78141785 C-25.98180184 17.03355007 -24.75825255 12.62399015 -20.40522766 7.39440918 C-14.43094505 1.57734453 -8.12571275 -0.05735189 0 0 Z M-18.40522766 11.39440918 C-22.00119839 17.18761517 -21.83269861 22.85481762 -21.79341125 29.46691895 C-21.79866821 30.56045685 -21.80392517 31.65399475 -21.80934143 32.78067017 C-21.82250702 36.38253206 -21.81381579 39.98394932 -21.80366516 43.58581543 C-21.80568673 46.09492579 -21.80859886 48.60403557 -21.81236267 51.11314392 C-21.81678124 56.3660432 -21.81065692 61.61882752 -21.79634094 66.8717041 C-21.78000791 72.93449545 -21.78531189 78.9969842 -21.80182016 85.05976826 C-21.81710057 90.90693008 -21.81545045 96.75397737 -21.80667496 102.60114861 C-21.80467478 105.0830483 -21.80712582 107.56495573 -21.81411362 110.04684639 C-21.82173683 113.51520343 -21.81011122 116.9829801 -21.79341125 120.45129395 C-21.79948395 121.47535843 -21.80555664 122.49942291 -21.81181335 123.55451965 C-21.75577557 129.84049091 -21.12316324 134.44791993 -16.68647766 139.25769043 C-15.80475891 139.97505371 -15.80475891 139.97505371 -14.90522766 140.70690918 C-14.31741516 141.19804199 -13.72960266 141.6891748 -13.12397766 142.19519043 C-9.19785004 144.93455675 -5.03024741 144.54000564 -0.45410156 144.53485107 C0.36502234 144.5378222 1.18414625 144.54079332 2.02809209 144.54385448 C4.78250683 144.55255045 7.53687815 144.55405048 10.29130554 144.55554199 C12.26228427 144.56016952 14.23326211 144.56519409 16.20423889 144.57058716 C21.56586302 144.5837192 26.92747463 144.59015765 32.28911233 144.59459782 C35.63752871 144.59752716 38.98594165 144.6016317 42.33435631 144.60610199 C52.80697848 144.61977885 63.27959282 144.62944466 73.75222331 144.63330388 C85.84844093 144.63778567 97.9445456 144.65533842 110.04072887 144.68430448 C119.38603107 144.70590771 128.73130147 144.71600743 138.07662839 144.717345 C143.66036548 144.71839397 149.24399644 144.72432147 154.82770729 144.74216461 C160.07996682 144.75862183 165.33204016 144.76081219 170.58431625 144.7520256 C172.51203471 144.75125398 174.43976309 144.75561442 176.36745644 144.76548386 C178.99942527 144.77816875 181.63073122 144.77234545 184.26269531 144.76190186 C185.02525251 144.76995826 185.78780971 144.77801466 186.57347471 144.7863152 C192.82387886 144.72832339 196.70698831 143.0676723 201.34477234 138.95690918 C204.65909148 135.18226793 205.84224423 132.57421799 205.86219788 127.54995728 C205.87072784 126.57708771 205.87925781 125.60421814 205.88804626 124.60186768 C205.88713989 123.54098938 205.88623352 122.48011108 205.88529968 121.38708496 C205.89201691 120.26472443 205.89873413 119.14236389 205.90565491 117.98599243 C205.92467478 114.27052399 205.92856111 110.55523579 205.93070984 106.83972168 C205.93713485 104.25906296 205.94386298 101.67840498 205.95088196 99.0977478 C205.96286463 93.68570965 205.96664734 88.27374313 205.96537781 82.86169434 C205.96417661 76.61317639 205.98527535 70.36500398 206.01686513 64.11657345 C206.04620463 58.09802407 206.05335297 52.07966179 206.05215836 46.06103134 C206.05451961 43.50375838 206.06337247 40.9464829 206.07882309 38.38925552 C206.09840908 34.81271916 206.09267318 31.23707303 206.08061218 27.66052246 C206.0918512 26.60369263 206.10309021 25.54686279 206.1146698 24.45800781 C206.06303758 18.43550974 205.60025773 14.98405297 201.59477234 10.39440918 C196.3652004 5.67503938 192.36932496 5.24411137 185.54321289 5.23377991 C184.29826775 5.22614818 184.29826775 5.22614818 183.02817219 5.21836227 C180.23697874 5.20262072 177.44581121 5.19410822 174.65458679 5.18566895 C172.65729609 5.17613187 170.66000705 5.16624078 168.66271973 5.15602112 C162.09451767 5.12461968 155.52630287 5.1043678 148.95805359 5.08581543 C147.84085804 5.08251811 146.72366249 5.07922079 145.57261252 5.07582355 C135.03774802 5.04504266 124.50288069 5.01833311 113.9679842 5.00140476 C100.48980074 4.97949352 87.01201543 4.93751333 73.53399116 4.86796719 C64.05872702 4.82073411 54.58357033 4.79647211 45.10819215 4.78920788 C39.44823095 4.7842507 33.78871839 4.76916291 28.12888527 4.72946358 C22.80260585 4.6925964 17.47703127 4.68418807 12.15064812 4.69746971 C10.1979452 4.69741576 8.24521105 4.68712033 6.29262543 4.66571808 C-7.57904268 3.95431119 -7.57904268 3.95431119 -18.40522766 11.39440918 Z " fill="#E7DEE4" transform="translate(26.405227661132813,1.6055908203125)"/>
<path d="M0 0 C4.29 0 8.58 0 13 0 C16.63 8.58 20.26 17.16 24 26 C24.33 17.42 24.66 8.84 25 0 C29.62 0 34.24 0 39 0 C40.33783337 2.95637285 41.67043139 5.91491314 43 8.875 C43.3815625 9.71675781 43.763125 10.55851562 44.15625 11.42578125 C44.69765625 12.63427734 44.69765625 12.63427734 45.25 13.8671875 C45.58515625 14.61081543 45.9203125 15.35444336 46.265625 16.12060547 C47 18 47 18 47 20 C47.66 20 48.32 20 49 20 C49.103125 19.32453125 49.20625 18.6490625 49.3125 17.953125 C50.14774712 14.36535898 51.52290823 11.10829355 53 7.75 C53.27328125 7.11320312 53.5465625 6.47640625 53.828125 5.8203125 C55.85925752 1.14074248 55.85925752 1.14074248 57 0 C61.29 0 65.58 0 70 0 C70 10.89 70 21.78 70 33 C67.03 33 64.06 33 61 33 C60.67 26.73 60.34 20.46 60 14 C59.43410156 15.28777344 58.86820312 16.57554688 58.28515625 17.90234375 C57.5443926 19.58078291 56.80350055 21.25916541 56.0625 22.9375 C55.68931641 23.78763672 55.31613281 24.63777344 54.93164062 25.51367188 C54.39506836 26.72700195 54.39506836 26.72700195 53.84765625 27.96484375 C53.51773682 28.7137085 53.18781738 29.46257324 52.84790039 30.23413086 C52 32 52 32 51 33 C48.66702567 33.04092937 46.33294775 33.04241723 44 33 C40.26285906 25.81196721 37.05392376 18.50392695 34 11 C33.67 18.26 33.34 25.52 33 33 C27.72 33 22.44 33 17 33 C16.01 31.02 15.02 29.04 14 27 C11.01526372 26.36678097 8.797088 26.11457349 5.8125 26.125 C5.06291016 26.104375 4.31332031 26.08375 3.54101562 26.0625 C1.69449213 26.01545482 -0.15288219 26.00425113 -2 26 C-2.309375 26.969375 -2.61875 27.93875 -2.9375 28.9375 C-4 32 -4 32 -5 33 C-6.51928038 33.07179964 -8.04167482 33.08392007 -9.5625 33.0625 C-10.38878906 33.05347656 -11.21507812 33.04445312 -12.06640625 33.03515625 C-12.70449219 33.02355469 -13.34257813 33.01195312 -14 33 C-11.87375685 26.3900362 -9.14973445 20.07392656 -6.4375 13.6875 C-5.93025391 12.48287109 -5.42300781 11.27824219 -4.90039062 10.03710938 C-4.41634766 8.89435547 -3.93230469 7.75160156 -3.43359375 6.57421875 C-2.76928345 5.00546997 -2.76928345 5.00546997 -2.09155273 3.4050293 C-1 1 -1 1 0 0 Z " fill="#0773D0" transform="translate(54,60)"/>
<path d="M0 0 C5.12751101 -0.2076642 10.24027095 -0.38632279 15.36865234 -0.49438477 C17.10906558 -0.53943721 18.84914208 -0.60070419 20.58837891 -0.67895508 C35.08763235 -1.3145957 35.08763235 -1.3145957 39.97265625 2.04345703 C41.95465282 4.27320317 43.554368 6.39610103 45 9 C46.11375 7.88625 46.11375 7.88625 47.25 6.75 C48.1575 5.8425 49.065 4.935 50 4 C50.53625 3.236875 51.0725 2.47375 51.625 1.6875 C55.61837835 -1.14990041 60.25872434 -0.29428608 65 0 C61.09489511 5.50719921 56.90282356 10.35827355 52 15 C53.55095581 18.62169141 55.76865052 21.12518019 58.4375 24 C61.12658885 26.90616522 63.68561226 29.78515916 66 33 C61.89659549 33.48513157 58.08611079 33.69550822 54 33 C51.64931111 31.10949888 50.16830022 29.25245034 48.5 26.75 C48.005 26.1725 47.51 25.595 47 25 C45.68 25 44.36 25 43 25 C41.65232072 26.77301725 41.65232072 26.77301725 40.40234375 28.96875 C37.68740746 32.25712144 36.34143813 32.94274782 32.06298828 33.66015625 C27.22364129 33.88926879 22.39974264 33.69802944 17.5625 33.5 C15.8601095 33.45983324 14.15762817 33.42333804 12.45507812 33.390625 C8.29931116 33.30965536 4.15622035 33.15322471 0 33 C0 22.11 0 11.22 0 0 Z " fill="#0A74D0" transform="translate(130,60)"/>
<path d="M0 0 C4.52615993 3.67832017 8.39424999 7.41086363 12 12 C10.61085525 16.29718953 8.61968015 18.70687757 5.375 21.8125 C4.55773437 22.60269531 3.74046875 23.39289063 2.8984375 24.20703125 C2.27195313 24.79871094 1.64546875 25.39039062 1 26 C0.67 24.68 0.34 23.36 0 22 C-5.94 22 -11.88 22 -18 22 C-18 20.35 -18 18.7 -18 17 C-12.06 17 -6.12 17 0 17 C0 14.36 0 11.72 0 9 C-5.94 9 -11.88 9 -18 9 C-18 7.35 -18 5.7 -18 4 C-12.06 4 -6.12 4 0 4 C0 2.68 0 1.36 0 0 Z " fill="#F6FAFD" transform="translate(157,63)"/>
<path d="M0 0 C2.38041123 3.57061685 3.54551059 6.96709754 5 11 C2.03 11 -0.94 11 -4 11 C-3.5247412 9.35303396 -3.04468109 7.70745272 -2.5625 6.0625 C-2.29566406 5.14597656 -2.02882812 4.22945313 -1.75390625 3.28515625 C-1 1 -1 1 0 0 Z " fill="#EEF5FB" transform="translate(60,67)"/>
</svg>
