<?xml version="1.0" encoding="UTF-8"?>
<svg version="1.1" xmlns="http://www.w3.org/2000/svg" width="247" height="154">
<path d="M0 0 C81.51 0 163.02 0 247 0 C247 50.82 247 101.64 247 154 C165.49 154 83.98 154 0 154 C0 103.18 0 52.36 0 0 Z " fill="#FDFCFC" transform="translate(0,0)"/>
<path d="M0 0 C81.51 0 163.02 0 247 0 C247 50.82 247 101.64 247 154 C165.49 154 83.98 154 0 154 C0 103.18 0 52.36 0 0 Z M5.75 11.375 C5.27046875 11.91898438 4.7909375 12.46296875 4.296875 13.0234375 C0.41868381 18.93417468 0.69799277 25.19962934 0.69360352 32.00317383 C0.68528 33.1015004 0.67695648 34.19982697 0.66838074 35.33143616 C0.64431623 38.95667075 0.63551294 42.58172529 0.62890625 46.20703125 C0.61993744 48.73280388 0.61081555 51.25857598 0.60154724 53.78434753 C0.58506446 59.07768374 0.57732553 64.37095276 0.57446289 69.66430664 C0.57083014 75.76519186 0.54094589 81.86557326 0.49905831 87.9663046 C0.46006028 93.85455907 0.44886795 99.74261515 0.44773674 105.63098717 C0.443538 108.12718119 0.43111779 110.62337578 0.41021919 113.11948586 C0.38327173 116.61631395 0.38814163 120.1117626 0.40063477 123.60864258 C0.38580048 124.63284302 0.37096619 125.65704346 0.35568237 126.71228027 C0.43179041 134.21824415 2.28874598 140.01270223 7.47812748 145.58807087 C13.00794353 150.49130341 18.06904276 151.29669278 25.24064636 151.27415466 C26.06682396 151.27939134 26.89300155 151.28462802 27.74421483 151.29002339 C30.51075936 151.30501695 33.27711882 151.3057284 36.04370117 151.30639648 C38.02819124 151.31401851 40.01267836 151.32244608 41.99716187 151.33161926 C47.38786687 151.35356946 52.77851514 151.36236412 58.16925979 151.36744571 C61.53882949 151.37108927 64.90838434 151.37732941 68.27794838 151.3844471 C80.03825152 151.40894537 91.79851054 151.42199389 103.55883789 151.42553711 C114.51232726 151.42917057 125.46553611 151.45905156 136.41893977 151.50094169 C145.8288952 151.53566438 155.23875778 151.55108591 164.64877683 151.55178314 C170.26621966 151.55257541 175.88337689 151.56129085 181.5007534 151.58978081 C186.78763005 151.61599443 192.07398498 151.61814801 197.36089706 151.60212517 C199.29661893 151.6003132 201.23237101 151.60697853 203.16802788 151.62294388 C217.3752852 151.93999042 217.3752852 151.93999042 230 146 C232.28560125 143.8033169 232.28560125 143.8033169 233.5625 141.375 C234.01753906 140.61960938 234.47257813 139.86421875 234.94140625 139.0859375 C236.65015797 135.71887692 237.12902842 133.05466874 237.15390015 129.33395386 C237.16250061 128.37520859 237.17110107 127.41646332 237.17996216 126.42866516 C237.18422211 125.37825546 237.18848206 124.32784576 237.19287109 123.24560547 C237.20104858 122.13796341 237.20922607 121.03032135 237.21765137 119.88911438 C237.24250906 116.21514426 237.25902382 112.54121284 237.2734375 108.8671875 C237.28142302 106.98504736 237.28142302 106.98504736 237.28956985 105.06488419 C237.3108014 99.7890983 237.32993007 94.51331821 237.34119225 89.23750114 C237.35740737 81.69239698 237.39052661 74.14780973 237.44759309 66.60290039 C237.49108703 60.64795273 237.50695003 54.69311926 237.51332474 48.73801041 C237.52003478 46.21110483 237.53525021 43.68420669 237.55921555 41.15740585 C237.59089403 37.61479424 237.59089872 34.07347826 237.58349609 30.53076172 C237.59990143 29.49249741 237.61630676 28.45423309 237.63320923 27.38450623 C237.56503243 19.38813521 235.85106254 13.87323281 230.14828682 8.13762665 C221.93759806 1.98903379 211.70240164 3.17365346 201.95800781 3.25537109 C199.9268774 3.25050984 197.89575178 3.24306594 195.86463928 3.23324585 C190.37094441 3.21449884 184.87796657 3.23321533 179.38432789 3.25991011 C173.62826798 3.28260316 167.87224171 3.27431947 162.1161499 3.27041626 C152.45573253 3.26865289 142.79559655 3.29076294 133.13525391 3.32763672 C121.968573 3.37001628 110.80230343 3.37698015 99.63555837 3.3645128 C88.88416826 3.35312426 78.13292289 3.36441514 67.38155365 3.38685989 C62.80910311 3.39614536 58.23674116 3.39790248 53.66428375 3.3936882 C48.28295477 3.38992101 42.90204458 3.40614033 37.52081108 3.43780899 C35.54634522 3.44629267 33.57183685 3.44799709 31.59736061 3.44242859 C28.90203316 3.43598022 26.2079553 3.45415609 23.51275635 3.47860718 C22.7316283 3.47104853 21.95050025 3.46348988 21.14570165 3.45570219 C14.37877539 3.56429804 10.06202771 6.32850603 5.75 11.375 Z " fill="#070707" transform="translate(0,0)"/>
<path d="M0 0 C0.66 0.33 1.32 0.66 2 1 C6.65275976 1.3052622 6.65275976 1.3052622 11 0 C15.63518261 -0.56549228 19.59939799 -0.67674909 23.5625 2 C24.366875 2.66 25.17125 3.32 26 4 C24.79618552 6.49361571 23.54571278 8.68143083 22 11 C21.38219594 15.28451124 21.54284183 18.97683649 23.3125 22.9375 C25.01097679 25.21872261 25.01097679 25.21872261 28 27 C26.60173536 32.59305858 23.75912508 36.71990921 20 41 C17.26094655 42.36952673 15.02912668 42.12621361 12 42 C11.34 41.67 10.68 41.34 10 41 C5.80748674 40.85788091 2.42025702 40.907401 -1.6875 41.8125 C-5 42 -5 42 -7.625 40.0625 C-14.97866609 30.5801411 -17.98266331 23.19116665 -17 11 C-15.39351252 6.18053757 -13.14839755 3.87196754 -9 1 C-6.01405576 -0.49297212 -3.29146376 -0.11755228 0 0 Z " fill="#030303" transform="translate(52,55)"/>
<path d="M0 0 C25.53846154 0 25.53846154 0 31.8125 5.4375 C35.51846624 9.77877474 36.47148508 12.9909485 36.3046875 18.625 C35.58912104 24.20274882 33.17625933 28.51383115 28.75 32 C22.54524209 35.54050117 14.83581106 34.28482546 8 34 C8 39.94 8 45.88 8 52 C5.36 52 2.72 52 0 52 C0 34.84 0 17.68 0 0 Z " fill="#090909" transform="translate(95,45)"/>
<path d="M0 0 C3.91729959 2.08027901 5.9405054 4.34276513 7.82421875 8.28125 C8.16479492 11.51098633 8.16479492 11.51098633 8.1171875 15.11328125 C8.10268555 17.05170898 8.10268555 17.05170898 8.08789062 19.02929688 C8.0628286 20.3841207 8.03743381 21.73893841 8.01171875 23.09375 C7.99665888 24.46808445 7.98297276 25.84243468 7.97070312 27.21679688 C7.93538503 30.57201632 7.88605726 33.92643166 7.82421875 37.28125 C5.18421875 37.28125 2.54421875 37.28125 -0.17578125 37.28125 C-0.50578125 35.96125 -0.83578125 34.64125 -1.17578125 33.28125 C-1.98015625 33.94125 -2.78453125 34.60125 -3.61328125 35.28125 C-7.63907184 37.94607592 -11.48864821 38.11973534 -16.17578125 37.28125 C-19.36078416 35.65979397 -21.39689221 34.30796736 -23.55078125 31.46875 C-24.48960866 28.18285407 -24.5935444 25.68303565 -24.17578125 22.28125 C-21.57542173 19.0308006 -19.06639945 16.74680382 -15.17578125 15.28125 C-12.5515162 15.14166143 -10.04285378 15.09193631 -7.42578125 15.15625 C-6.72839844 15.16527344 -6.03101563 15.17429687 -5.3125 15.18359375 C-3.60011167 15.20705112 -1.88790121 15.24291896 -0.17578125 15.28125 C-0.83578125 12.64125 -1.49578125 10.00125 -2.17578125 7.28125 C-3.61218296 7.08551392 -5.04997629 6.89997184 -6.48828125 6.71875 C-7.28878906 6.61433594 -8.08929688 6.50992188 -8.9140625 6.40234375 C-11.34395241 6.13369822 -11.34395241 6.13369822 -14.17578125 7.28125 C-14.50578125 8.27125 -14.83578125 9.26125 -15.17578125 10.28125 C-17.48578125 10.28125 -19.79578125 10.28125 -22.17578125 10.28125 C-22.02395493 7.62428932 -21.70254101 5.83890476 -19.84375 3.87109375 C-13.8755442 -1.10967167 -7.59539249 -2.50907041 0 0 Z " fill="#0C0C0C" transform="translate(157.17578125,59.71875)"/>
<path d="M0 0 C2.64 0 5.28 0 8 0 C11 9 14 18 17 27 C18.92685023 24.10972465 19.7239455 22.00611276 20.69140625 18.7109375 C20.99626953 17.68742187 21.30113281 16.66390625 21.61523438 15.609375 C21.92783203 14.54203125 22.24042969 13.4746875 22.5625 12.375 C23.1859708 10.25697701 23.81212636 8.13974183 24.44140625 6.0234375 C24.71670166 5.08419434 24.99199707 4.14495117 25.27563477 3.17724609 C26 1 26 1 27 0 C29.67058851 -0.14115161 32.32432238 -0.04247107 35 0 C34.35699701 2.70725953 33.58867955 5.31477925 32.66479492 7.93896484 C32.39749069 8.7001059 32.13018646 9.46124695 31.8547821 10.24545288 C31.5662587 11.05906281 31.27773529 11.87267273 30.98046875 12.7109375 C30.68062576 13.55669342 30.38078278 14.40244934 30.07185364 15.27383423 C29.43669373 17.06123018 28.8003275 18.84819786 28.1628418 20.63476562 C27.51434778 22.45671728 26.86946893 24.27995987 26.22827148 26.10449219 C25.29954611 28.74707069 24.35998323 31.3855713 23.41796875 34.0234375 C23.13551804 34.83299896 22.85306732 35.64256042 22.5620575 36.47665405 C20.68741453 41.67495716 18.73642181 47.08450473 14.046875 50.3671875 C11.67544721 51.10033884 9.72805977 51.19788411 7.25 51.125 C6.05117187 51.09792969 6.05117187 51.09792969 4.828125 51.0703125 C4.22484375 51.04710937 3.6215625 51.02390625 3 51 C3 49.02 3 47.04 3 45 C4.11375 44.71125 5.2275 44.4225 6.375 44.125 C10.00291092 43.30758671 10.00291092 43.30758671 12 41 C12.56053614 36.02069194 11.15100354 32.23001733 9.1875 27.75 C7.03658865 22.63084353 5.15780508 17.57641512 3.65625 12.22265625 C2.97975584 9.93143495 2.17337835 7.72792128 1.3125 5.5 C0 2 0 2 0 0 Z " fill="#0E0E0E" transform="translate(168,59)"/>
<path d="M0 0 C13.68002361 -0.41454617 13.68002361 -0.41454617 18 3 C19.99299003 5.88599149 20.26294896 8.04432378 19.9375 11.5 C19.88464844 12.2528125 19.83179687 13.005625 19.77734375 13.78125 C18.61297986 17.10466051 16.99616121 18.20714882 14 20 C9.27267379 20.52005789 4.77279398 20.1784222 0 20 C0 13.4 0 6.8 0 0 Z " fill="#FBFBFB" transform="translate(103,52)"/>
<path d="M0 0 C1.61648437 0.04060547 1.61648437 0.04060547 3.265625 0.08203125 C4.08546875 0.11683594 4.9053125 0.15164062 5.75 0.1875 C5.51683515 4.22902406 5.3271041 6.52552764 2.625 9.625 C-0.97203162 11.57990849 -3.21094716 11.71108092 -7.25 11.1875 C-9.1875 10 -9.1875 10 -10.25 8.1875 C-10.6875 5.6875 -10.6875 5.6875 -10.25 3.1875 C-7.01343581 -0.06451319 -4.46902984 -0.14572923 0 0 Z " fill="#F4F4F4" transform="translate(151.25,79.8125)"/>
<path d="M0 0 C1.32 0 2.64 0 4 0 C3.71421491 3.71520613 3.4972221 6.30020593 1.3125 9.375 C-1.46578975 11.32731171 -3.64877744 11.6953434 -7 12 C-6.6257368 6.63556087 -5.0040457 4.50353999 -1 1 C-0.67 0.67 -0.34 0.34 0 0 Z " fill="#111111" transform="translate(64,42)"/>
</svg>
