<?xml version="1.0" encoding="UTF-8"?>
<svg version="1.1" xmlns="http://www.w3.org/2000/svg" width="240" height="152">
<path d="M0 0 C79.2 0 158.4 0 240 0 C240 50.16 240 100.32 240 152 C160.8 152 81.6 152 0 152 C0 101.84 0 51.68 0 0 Z " fill="#FEFCFD" transform="translate(0,0)"/>
<path d="M0 0 C79.2 0 158.4 0 240 0 C240 50.16 240 100.32 240 152 C160.8 152 81.6 152 0 152 C0 146.39 0 140.78 0 135 C1.02919745 136.54379618 2.05484092 138.0916141 3.0078125 139.68359375 C3.37648437 140.26238281 3.74515625 140.84117187 4.125 141.4375 C4.47820313 142.01371094 4.83140625 142.58992187 5.1953125 143.18359375 C9.64044402 147.65758976 15.1374099 149.44539093 21.33466911 149.53497362 C22.09966288 149.52605073 22.86465664 149.51712785 23.65283203 149.50793457 C24.48706758 149.51417453 25.32130314 149.5204145 26.18081856 149.52684355 C28.9567767 149.54270968 31.73184894 149.53019457 34.5078125 149.51757812 C36.50584421 149.52300208 38.50387192 149.53012627 40.50189209 149.53881836 C45.91510615 149.55702198 51.32801456 149.54999631 56.74123383 149.53730202 C62.41229563 149.52715907 68.08333167 149.5365713 73.75439453 149.54284668 C83.27706591 149.55011929 92.79961311 149.54054545 102.32226562 149.52148438 C113.32411972 149.49971645 124.32567728 149.50676809 135.32752419 149.52879 C144.78168586 149.54695493 154.23575838 149.54949695 163.68993187 149.53903532 C169.33290847 149.53280644 174.97574579 149.53194821 180.61871338 149.54518127 C185.92448016 149.55675497 191.22986545 149.54868601 196.53559113 149.52560425 C198.48020037 149.52032532 200.42484184 149.52181693 202.36943817 149.53065491 C205.02911158 149.54162631 207.68757137 149.52782797 210.34716797 149.50793457 C211.11216173 149.51685746 211.87715549 149.52578034 212.66533089 149.53497362 C219.06892611 149.4424083 224.48723386 147.52707032 229.05859375 142.9296875 C229.51363281 142.25164062 229.96867188 141.57359375 230.4375 140.875 C230.91058594 140.19179687 231.38367188 139.50859375 231.87109375 138.8046875 C233.7703729 135.76846963 234.12906715 133.98277144 234.14717102 130.41624451 C234.15432632 129.45045975 234.16148163 128.48467499 234.16885376 127.48962402 C234.17154266 126.42626831 234.17423157 125.3629126 234.17700195 124.26733398 C234.18685875 122.59145958 234.18685875 122.59145958 234.19691467 120.88172913 C234.21668695 117.16985004 234.22832086 113.45801154 234.23828125 109.74609375 C234.24235678 108.47938402 234.2464323 107.21267429 234.25063133 105.90757942 C234.26935674 99.89170997 234.2839161 93.87586516 234.2922433 87.85997432 C234.30199734 80.92830765 234.32826515 73.99696188 234.36874419 67.06540817 C234.40264102 61.05329845 234.41439664 55.04134337 234.41844749 49.02913094 C234.42331439 46.47712089 234.4349312 43.92511428 234.45348549 41.37316704 C234.47787992 37.79466279 234.47691038 34.21699 234.4699707 30.63842773 C234.48278076 29.58924164 234.49559082 28.54005554 234.50878906 27.45907593 C234.46250766 20.89043946 233.44038514 15.67245834 230 10 C228.06798167 8.01614415 228.06798167 8.01614415 225.875 7 C225.19179687 6.62875 224.50859375 6.2575 223.8046875 5.875 C223.20914063 5.58625 222.61359375 5.2975 222 5 C221.01 4.505 221.01 4.505 220 4 C217.30547443 3.89553773 214.63641572 3.85220438 211.94134521 3.85282898 C211.09857442 3.84915229 210.25580363 3.8454756 209.38749433 3.8416875 C206.54706047 3.83062326 203.70666315 3.82680219 200.86621094 3.82299805 C198.83626692 3.81673547 196.80632405 3.81008886 194.77638245 3.80308533 C189.24941877 3.78565657 183.72246376 3.77511848 178.19547939 3.7668798 C174.74438513 3.76173368 171.29329358 3.75565777 167.84220123 3.74936867 C157.05028401 3.73031147 146.25837365 3.71608139 135.46644282 3.7077567 C122.99833097 3.69798097 110.5303965 3.6716548 98.06234717 3.63125581 C88.43256723 3.60112141 78.80283821 3.58629037 69.17301202 3.58297569 C63.41819668 3.58062216 57.66357072 3.57162241 51.90880585 3.54651451 C46.4948307 3.52327565 41.08117018 3.51898377 35.66715813 3.52927589 C33.67977033 3.52977238 31.69236727 3.52341881 29.70502663 3.50971985 C26.99183535 3.49206369 24.27978087 3.49907605 21.56658936 3.51225281 C20.78000435 3.50128356 19.99341934 3.49031432 19.18299842 3.47901267 C13.17732631 3.54943592 9.56597035 5.39666115 5.390625 9.6328125 C5.01421875 10.12523437 4.6378125 10.61765625 4.25 11.125 C2 14 2 14 0 16 C0 10.72 0 5.44 0 0 Z " fill="#0E0D0D" transform="translate(0,0)"/>
<path d="M0 0 C3.07666106 2.17176075 3.78029582 2.98254055 5.1875 6.25 C3.2075 8.23 1.2275 10.21 -0.8125 12.25 C-1.76125 11.92 -2.71 11.59 -3.6875 11.25 C-9.30969046 9.66161692 -15.22863895 9.18275304 -20.6875 11.4375 C-24.03826202 14.2955029 -27.54144468 17.64369887 -28.015625 22.203125 C-28.15446546 29.00630759 -26.85303827 32.84321127 -22.375 38.125 C-18.529452 41.10313116 -14.35569789 40.87951232 -9.6640625 40.67578125 C-5.59716489 40.06853215 -3.79158467 39.07229074 -0.8125 36.25 C-0.1525 34.93 0.5075 33.61 1.1875 32.25 C-5.7425 31.755 -5.7425 31.755 -12.8125 31.25 C-12.8125 27.62 -12.8125 23.99 -12.8125 20.25 C-4.2325 20.25 4.3475 20.25 13.1875 20.25 C13.78041359 35.66575325 13.78041359 35.66575325 9.1875 42.25 C8.65125 43.136875 8.115 44.02375 7.5625 44.9375 C1.75403833 50.59310742 -4.25423661 52.58982384 -12.3125 52.875 C-20.05174258 52.58604745 -25.93261713 50.87397571 -31.6484375 45.53515625 C-38.19642309 38.23654792 -40.19618714 32.06425835 -40.08984375 22.3515625 C-39.41498256 14.80452331 -35.47874578 8.20335586 -29.8125 3.25 C-21.41753356 -2.9714104 -9.6196697 -4.39806393 0 0 Z " fill="#3AAA57" transform="translate(72.8125,46.75)"/>
<path d="M0 0 C19 0 19 0 27 4 C30.13316518 7.36815257 31.25739808 9.98912059 31.5 14.5 C31.29001113 18.9547639 29.93174618 21.57962946 27 25 C20.81833642 30.43237103 13.83172219 29.07185066 6 29 C6 35.27 6 41.54 6 48 C4.02 48 2.04 48 0 48 C0 32.16 0 16.32 0 0 Z " fill="#676A6F" transform="translate(105,48)"/>
<path d="M0 0 C3.78911405 2.21718087 6.05910281 3.86727397 7.71875 8.01171875 C7.94580078 10.76074219 7.94580078 10.76074219 7.9140625 13.87109375 C7.90761719 14.98613281 7.90117187 16.10117188 7.89453125 17.25 C7.87777344 18.40886719 7.86101562 19.56773438 7.84375 20.76171875 C7.83472656 21.93605469 7.82570312 23.11039063 7.81640625 24.3203125 C7.79285063 27.21765411 7.75995652 30.11458316 7.71875 33.01171875 C5.73875 33.01171875 3.75875 33.01171875 1.71875 33.01171875 C1.38875 32.02171875 1.05875 31.03171875 0.71875 30.01171875 C0.079375 30.67171875 -0.56 31.33171875 -1.21875 32.01171875 C-5.32508748 34.69340853 -8.49891366 34.85367937 -13.28125 34.01171875 C-16.46625291 32.39026272 -18.50236096 31.03843611 -20.65625 28.19921875 C-21.58303233 24.9554806 -21.63465896 22.36910383 -21.28125 19.01171875 C-19.0879554 15.486781 -17.11451917 13.53415189 -13.28125 12.01171875 C-10.625 11.78125 -10.625 11.78125 -7.78125 11.82421875 C-6.37359375 11.83388672 -6.37359375 11.83388672 -4.9375 11.84375 C-2.57504415 11.99314059 -0.54408335 12.34460986 1.71875 13.01171875 C0.88122221 9.91423177 0.88122221 9.91423177 -1.28125 7.01171875 C-4.29977161 5.92993644 -7.09630441 5.73085935 -10.28125 6.01171875 C-13.02697728 7.49159838 -13.02697728 7.49159838 -15.28125 9.01171875 C-17.59375 8.19921875 -17.59375 8.19921875 -19.28125 7.01171875 C-19.21875 5.26171875 -19.21875 5.26171875 -18.28125 3.01171875 C-12.59702717 -1.25144837 -6.76817491 -2.93210317 0 0 Z " fill="#676A6F" transform="translate(157.28125,62.98828125)"/>
<path d="M0 0 C3.07666106 2.17176075 3.78029582 2.98254055 5.1875 6.25 C3.2075 8.23 1.2275 10.21 -0.8125 12.25 C-1.76125 11.92 -2.71 11.59 -3.6875 11.25 C-9.30969046 9.66161692 -15.22863895 9.18275304 -20.6875 11.4375 C-23.68167353 13.99135389 -26.0478812 16.7207624 -27.8125 20.25 C-27.65231391 22.00060509 -27.48457961 23.75052397 -27.3125 25.5 C-27.25 28.47265625 -27.25 28.47265625 -27.8125 31.25 C-30.46465751 33.97985744 -33.38473933 35.63813635 -36.8125 37.25 C-40.17064533 33.89185467 -40.01059771 30.16869728 -40.125 25.5625 C-40.03495276 17.33818527 -37.25264128 10.82740846 -31.61328125 4.82421875 C-23.04283936 -2.66794629 -10.54124987 -4.81940568 0 0 Z " fill="#EA493B" transform="translate(72.8125,46.75)"/>
<path d="M0 0 C1.98 0 3.96 0 6 0 C5.34025944 4.18243234 3.96100821 7.71974843 2.26953125 11.59375 C1.99662766 12.22172485 1.72372406 12.84969971 1.44255066 13.4967041 C0.86397959 14.82562737 0.28306278 16.15353153 -0.30004883 17.48046875 C-1.17170527 19.46405666 -2.03673258 21.45041852 -2.90039062 23.4375 C-6.49116928 31.67668664 -10.19851989 39.85557755 -14 48 C-15.98 48 -17.96 48 -20 48 C-18.63144963 43.5522113 -16.8510879 39.5552676 -14.70703125 35.44140625 C-12.69068625 28.47888897 -16.56914994 22.01798913 -19.5 15.875 C-20.32775268 14.12467468 -21.15083496 12.37213143 -21.96875 10.6171875 C-22.33419922 9.85003418 -22.69964844 9.08288086 -23.07617188 8.29248047 C-24.05059674 5.87444413 -24.56716275 3.56586375 -25 1 C-23.02 1 -21.04 1 -19 1 C-15.38897505 7.82246926 -12.48647314 14.69338062 -10 22 C-6.26606169 14.81812717 -3.0301707 7.50450787 0 0 Z " fill="#686C71" transform="translate(192,63)"/>
<path d="M0 0 C8.58 0 17.16 0 26 0 C26.38884661 10.11001184 26.62736572 16.85848253 19.75 24.5 C19.1725 24.995 18.595 25.49 18 26 C15.36 24.02 12.72 22.04 10 20 C11.33333333 17.33333333 12.66666667 14.66666667 14 12 C7.07 11.505 7.07 11.505 0 11 C0 7.37 0 3.74 0 0 Z " fill="#4889F3" transform="translate(60,67)"/>
<path d="M0 0 C12.2920399 -0.40523208 12.2920399 -0.40523208 17 3 C19 5 19 5 19.4375 8.3125 C19 12 19 12 17.375 14.9375 C11.82249928 18.33069488 6.40756184 17.29941878 0 17 C0 11.39 0 5.78 0 0 Z " fill="#F7F7F7" transform="translate(111,54)"/>
<path d="M0 0 C1.35350594 0.62469505 2.6808418 1.30570621 4 2 C5.0725 2.45375 6.145 2.9075 7.25 3.375 C10.48314584 6.46118466 10.60954067 7.53088303 10.9375 11.875 C10.78487892 15.65815283 10.61655876 17.35611783 7.97265625 20.1171875 C5.70364051 21.61552649 3.47563418 22.88007025 1 24 C-2.43980104 20.56019896 -2.15756732 16.83041695 -2.1875 12.125 C-2.16046792 7.70255142 -1.82161881 4.09864232 0 0 Z " fill="#F9BC0B" transform="translate(35,60)"/>
<path d="M0 0 C2.5 1 2.5 1 4 2 C3.81375663 6.09735408 3.43470443 7.59634588 0.375 10.4375 C-3.68398075 12.31665776 -5.72631488 12.15060753 -10 11 C-12 9 -12 9 -12.375 6.0625 C-12 3 -12 3 -10.5 1.125 C-6.96291841 -0.46668671 -3.8207348 -0.47759185 0 0 Z " fill="#F7F7F7" transform="translate(155,80)"/>
</svg>
