<?xml version="1.0" encoding="UTF-8"?>
<svg version="1.1" xmlns="http://www.w3.org/2000/svg" width="242" height="160">
<path d="M0 0 C79.86 0 159.72 0 242 0 C242 52.8 242 105.6 242 160 C162.14 160 82.28 160 0 160 C0 107.2 0 54.4 0 0 Z " fill="#FEFCFC" transform="translate(0,0)"/>
<path d="M0 0 C3.25403957 1.51350677 4.28442275 1.15614483 7.6875 0.25 C9.34722965 -0.38127594 10.99351525 -1.04895126 12.625 -1.75 C23.12686137 -6.00626099 34.08958609 -6.10761514 44.734375 -2.13671875 C56.00314099 3.15483142 64.31166333 11.59408362 68.9765625 23.13671875 C72.63985362 34.02595226 71.23665085 46.71074319 66.3984375 56.98828125 C59.76816985 68.67102558 50.31189686 75.04186771 37.6875 79.25 C26.11166945 79.96760738 16.70076388 79.44253966 6.24609375 73.97265625 C2.74452495 72.98366353 1.25664119 73.93023225 -1.9375 75.5625 C-11.20228058 80.19489029 -21.46351728 80.66174555 -31.62890625 78.56640625 C-42.49550042 74.84115846 -51.53114872 68.22373362 -57.04296875 58.05859375 C-62.40916871 46.85458006 -64.40318064 35.75834096 -60.36328125 23.734375 C-58.47717799 19.27503792 -55.99760255 15.26685583 -53.3125 11.25 C-52.735 10.363125 -52.1575 9.47625 -51.5625 8.5625 C-37.89901379 -5.4805275 -17.39897385 -9.19191071 0 0 Z " fill="#F79E1C" transform="translate(112.3125,42.75)"/>
<path d="M0 0 C79.86 0 159.72 0 242 0 C242 52.8 242 105.6 242 160 C162.14 160 82.28 160 0 160 C0 153.07 0 146.14 0 139 C2 142 2 142 3.25 144.875 C5.77707018 149.38762533 8.90037414 152.1188867 13.67819405 154.1239109 C17.60818148 155.16040105 21.30431243 155.28379194 25.33639526 155.26742554 C26.16075486 155.27195665 26.98511446 155.27648776 27.83445466 155.28115618 C30.58874988 155.29378715 33.34284704 155.29218066 36.09716797 155.29052734 C38.07519789 155.29651336 40.05322548 155.30331908 42.03125 155.31088257 C47.39904177 155.32854121 52.76676976 155.33323787 58.13458776 155.33451414 C61.4892388 155.33593625 64.84387365 155.34020696 68.19852066 155.34550858 C79.90465575 155.36400764 91.61074531 155.37217924 103.31689453 155.37060547 C114.22439408 155.36940376 125.13169585 155.39051236 136.03914535 155.4220928 C145.4083254 155.44825171 154.77744082 155.45897294 164.14665711 155.45769465 C169.74050039 155.45718495 175.33416784 155.46287278 180.9279747 155.48405075 C186.18936272 155.50342679 191.45040705 155.50356179 196.71180725 155.48901749 C198.64030077 155.48692759 200.56881578 155.49164102 202.49727249 155.5037384 C205.1351298 155.51921131 207.77180497 155.50986963 210.40963745 155.49447632 C211.16821356 155.50476344 211.92678966 155.51505057 212.70835292 155.52564943 C218.74335707 155.44811135 224.06743099 153.76975674 228.53236187 149.5527128 C232.24885391 145.25472318 234.24698401 141.80212401 234.26069641 136.12431335 C234.26778122 135.14447479 234.27486603 134.16463623 234.28216553 133.15510559 C234.27968811 132.0864476 234.27721069 131.01778961 234.2746582 129.91674805 C234.27976913 128.78624023 234.28488007 127.65573242 234.29014587 126.4909668 C234.30406377 122.74783049 234.30308319 119.00487789 234.30078125 115.26171875 C234.30466742 112.66103548 234.30900193 110.06035283 234.31376648 107.45967102 C234.32123376 102.00474728 234.32107221 96.54989484 234.31567383 91.0949707 C234.30963952 84.79995058 234.32193162 78.50515429 234.3432439 72.21017236 C234.3630205 66.1446504 234.36602911 60.07923268 234.36250877 54.01368141 C234.36302203 51.43770637 234.36826059 48.86172777 234.37832069 46.28577232 C234.39066944 42.68081868 234.38390176 39.07638106 234.37231445 35.47143555 C234.37995819 34.40885025 234.38760193 33.34626495 234.39547729 32.2514801 C234.34957969 25.78462882 233.91882739 20.40140685 229.53515625 15.29296875 C223.66027161 10.88290946 220.06592887 9.70332293 212.71429443 9.72584534 C211.87122592 9.72060866 211.02815741 9.71537198 210.15954137 9.70997661 C207.32994595 9.69495542 204.50053102 9.69427099 201.67089844 9.69360352 C199.64390253 9.68598339 197.61690951 9.67755615 195.58992004 9.66838074 C190.07945936 9.64641277 184.56905418 9.63763359 179.05855465 9.63255429 C175.61580432 9.62891305 172.17306857 9.62267416 168.73032379 9.6155529 C156.71946065 9.59104919 144.70864076 9.57800478 132.69775391 9.57446289 C121.5028325 9.57082823 110.30818536 9.54094002 99.11334777 9.49905831 C89.50217173 9.4643622 79.89108659 9.44891456 70.27984834 9.44821686 C64.53949606 9.44742373 58.799423 9.43866871 53.05913544 9.41021919 C47.6581937 9.38405089 42.2577629 9.38182672 36.85678673 9.39787483 C34.87668685 9.39969036 32.89655768 9.39298924 30.91652107 9.37705612 C28.20829091 9.35659557 25.50184834 9.36714685 22.79364014 9.38526917 C22.01424505 9.3720692 21.23484996 9.35886923 20.43183684 9.34526926 C14.54606874 9.43492419 10.59078727 11.34350683 6 15 C4.1376618 17.11361026 4.1376618 17.11361026 3.0625 19.3125 C2.38825901 20.5489894 1.70492893 21.78074525 1 23 C0.67 23 0.34 23 0 23 C0 15.41 0 7.82 0 0 Z " fill="#080808" transform="translate(0,0)"/>
<path d="M0 0 C-0.86625 0.99 -1.7325 1.98 -2.625 3 C-3.75461339 4.32942708 -4.8794227 5.66294754 -6 7 C-6.5259375 7.62519531 -7.051875 8.25039063 -7.59375 8.89453125 C-15.01582617 18.19106033 -17.9672811 28.56528896 -16.74609375 40.4765625 C-16.30545252 42.72343579 -15.71807322 44.82626747 -15 47 C-14.7421875 47.81082031 -14.484375 48.62164062 -14.21875 49.45703125 C-11.71350877 56.48682453 -7.88896848 63.14489462 -1.78125 67.62890625 C-1.1934375 68.08136719 -0.605625 68.53382812 0 69 C0 69.66 0 70.32 0 71 C-1.76997474 71.81436868 -3.54101152 72.6264294 -5.3125 73.4375 C-6.29863281 73.88996094 -7.28476563 74.34242187 -8.30078125 74.80859375 C-16.94412608 78.6236736 -29.11294828 78.443054 -38.0625 75.375 C-50.90688209 69.74943602 -58.09770123 61.8216545 -63.8359375 49.1484375 C-67.45564069 39.35823356 -67.04769144 28.57000653 -63 19 C-61.18804283 15.52835098 -59.17534852 12.25427473 -57 9 C-56.4225 8.113125 -55.845 7.22625 -55.25 6.3125 C-40.17974991 -9.17636815 -18.04358071 -11.37530088 0 0 Z " fill="#EB011C" transform="translate(116,45)"/>
<path d="M0 0 C8.39169304 4.13054152 13.74560782 13.06686533 16.7578125 21.55078125 C20.22290192 34.25610911 17.81377573 45.2911628 11.55078125 56.625 C8.64025026 61.27109829 5.61836399 64.98139984 1.0078125 67.98828125 C-2.80111081 68.10370317 -5.22818308 65.38761942 -7.9921875 62.98828125 C-16.17316776 52.23613576 -19.73821644 41.93544504 -18.8125 28.3515625 C-17.12388811 17.65127694 -11.67076564 9.00727296 -4.140625 1.4375 C-1.9921875 -0.01171875 -1.9921875 -0.01171875 0 0 Z " fill="#FE5F00" transform="translate(116.9921875,46.01171875)"/>
</svg>
