<?xml version="1.0" encoding="UTF-8"?>
<svg version="1.1" xmlns="http://www.w3.org/2000/svg" width="240" height="153">
<path d="M0 0 C79.2 0 158.4 0 240 0 C240 50.49 240 100.98 240 153 C160.8 153 81.6 153 0 153 C0 102.51 0 52.02 0 0 Z " fill="#5B32F4" transform="translate(0,0)"/>
<path d="M0 0 C79.2 0 158.4 0 240 0 C240 50.49 240 100.98 240 153 C160.8 153 81.6 153 0 153 C0 102.51 0 52.02 0 0 Z M6.6875 13.625 C4.34409702 16.92312271 3.87247829 18.59894991 3.84609985 22.59048462 C3.83749939 23.55771454 3.82889893 24.52494446 3.82003784 25.52148438 C3.81577789 26.58641113 3.81151794 27.65133789 3.80712891 28.74853516 C3.79895142 29.86739105 3.79077393 30.98624695 3.78234863 32.13900757 C3.75746058 35.85568705 3.7409682 39.5723282 3.7265625 43.2890625 C3.72123882 44.55702038 3.71591515 45.82497826 3.71043015 47.1313591 C3.68919124 52.46201094 3.67006276 57.79264933 3.65880775 63.12333107 C3.64259042 70.75360218 3.6094734 78.38336225 3.55240691 86.01344073 C3.50894353 92.03089757 3.49305298 98.04812293 3.48667526 104.06574631 C3.47995944 106.62138883 3.46472898 109.17702384 3.44078445 111.73256302 C3.40914912 115.31380142 3.40909487 118.89375606 3.41650391 122.47509766 C3.40009857 123.52787903 3.38369324 124.5806604 3.36679077 125.66534424 C3.41487738 131.35440943 4.14067712 135.40324739 7.14551353 140.26454735 C12.52931867 145.3027825 18.38736601 146.59239604 25.55239868 146.50120544 C26.37579471 146.50673984 27.19919074 146.51227424 28.04753816 146.51797634 C30.78672592 146.53151131 33.52499115 146.51665305 36.26416016 146.50170898 C38.23587937 146.50549471 40.20759591 146.51099683 42.17930603 146.51808167 C47.52008751 146.5320186 52.8605462 146.52087956 58.20130968 146.50437045 C63.79455844 146.49050075 69.38778883 146.49698208 74.98104858 146.50050354 C84.37088207 146.50320369 93.76058759 146.48974525 103.15039062 146.46655273 C114.00455768 146.4399288 124.858511 146.43820158 135.71269953 146.4499411 C146.15971461 146.46072059 156.60665241 146.45453144 167.05366135 146.44038582 C171.49771324 146.43462908 175.94170854 146.43470622 180.38576126 146.43945122 C185.61760397 146.44422406 190.84921263 146.43410643 196.08101082 146.41249657 C198.00065764 146.40693332 199.92032697 146.40645916 201.83997536 146.41144943 C204.46076597 146.41740795 207.08084231 146.40488648 209.7015686 146.38768005 C210.8402885 146.39669512 210.8402885 146.39669512 212.00201285 146.40589231 C217.59518316 146.33913937 221.68557353 145.09123231 225.86328125 141.31640625 C226.58064453 140.44822266 226.58064453 140.44822266 227.3125 139.5625 C227.80363281 138.98628906 228.29476562 138.41007813 228.80078125 137.81640625 C230.9862998 134.50609313 231.12743924 131.17310274 231.15390015 127.28289795 C231.16250061 126.33816116 231.17110107 125.39342438 231.17996216 124.4200592 C231.18422211 123.39037521 231.18848206 122.36069122 231.19287109 121.29980469 C231.20104858 120.20991745 231.20922607 119.12003021 231.21765137 117.99711609 C231.24247299 114.38870796 231.25901258 110.78033906 231.2734375 107.171875 C231.28142302 105.32233593 231.28142302 105.32233593 231.28956985 103.43543243 C231.31353308 97.58242979 231.33277681 91.72944328 231.3455919 85.87640548 C231.36064793 79.13484179 231.39573295 72.39376285 231.44759309 65.65238452 C231.49105809 59.80152799 231.50694674 53.95083349 231.51332474 48.09983063 C231.52003802 45.61675527 231.53526192 43.13368758 231.55921555 40.65071869 C231.59085661 37.17266523 231.59090469 33.69593322 231.58349609 30.21777344 C231.59990143 29.19618637 231.61630676 28.1745993 231.63320923 27.12205505 C231.57775052 20.74836538 230.66117496 15.63310422 226 11 C220.66215965 7.28551212 216.87430897 6.4175949 210.45396423 6.49206543 C209.61917197 6.48582547 208.78437971 6.4795855 207.92429072 6.47315645 C205.14056056 6.45726318 202.35771051 6.46981612 199.57397461 6.48242188 C197.57284537 6.47699917 195.57172012 6.46987568 193.57060242 6.46118164 C188.14506747 6.44296432 182.71983717 6.45000905 177.29429698 6.46269798 C171.61428561 6.47283242 165.93430013 6.46343119 160.25428772 6.45715332 C150.71724773 6.44987882 141.18033171 6.45946012 131.64331055 6.47851562 C120.61814825 6.50029015 109.59328177 6.49322788 98.56812662 6.47121 C89.09957915 6.45305789 79.63112072 6.4504966 70.16256148 6.46096468 C64.50845558 6.46719981 58.85448873 6.46803447 53.20039177 6.45481873 C47.88561591 6.44326346 42.57122154 6.4512803 37.25648689 6.47439575 C35.30620075 6.47968426 33.35588249 6.47816665 31.40560913 6.46934509 C28.74299021 6.45841184 26.08159322 6.47212602 23.41905212 6.49206543 C22.64755056 6.48314254 21.87604899 6.47421966 21.08116859 6.46502638 C14.56293261 6.55969035 10.92236905 8.81785135 6.6875 13.625 Z " fill="#F4E6F0" transform="translate(0,0)"/>
<path d="M0 0 C79.2 0 158.4 0 240 0 C240 50.49 240 100.98 240 153 C160.8 153 81.6 153 0 153 C0 146.73 0 140.46 0 134 C2 137 2 137 3.75 140.4375 C6.35975026 145.06076545 10.00223736 147.33407912 15 149 C17.7048202 149.10444247 20.38431426 149.15218142 23.08952332 149.15390015 C24.34059379 149.16047353 24.34059379 149.16047353 25.61693841 149.1671797 C28.42195535 149.18057332 31.22694086 149.18674784 34.03198242 149.19287109 C36.03912498 149.20077163 38.04626612 149.20904055 40.05340576 149.21765137 C46.65407961 149.2438775 53.25475983 149.25917978 59.85546875 149.2734375 C62.12712419 149.27879697 64.39877959 149.28417448 66.67043495 149.28956985 C76.11959756 149.3111996 85.56875846 149.32993647 95.01793957 149.34119225 C108.56263204 149.35743228 122.10703767 149.39061055 135.651622 149.44759309 C145.17359714 149.48628738 154.69549554 149.50582436 164.21754724 149.51111281 C169.9053922 149.51476699 175.59293126 149.5267957 181.28069115 149.55921555 C186.63317659 149.5892868 191.98517089 149.59561116 197.33772278 149.58383179 C199.30009097 149.58361097 201.26248189 149.59192234 203.2247715 149.60948563 C205.90895634 149.63219855 208.59136343 149.62387287 211.27555847 149.60800171 C212.04785378 149.6218838 212.82014909 149.63576588 213.61584729 149.65006864 C219.49449998 149.5647199 223.40686876 147.62637823 228 144 C232.00671322 139.67696732 234.24398298 136.06720867 234.26742554 130.13104248 C234.27595551 129.15264908 234.28448547 128.17425568 234.29327393 127.16621399 C234.29236755 126.09912704 234.29146118 125.0320401 234.29052734 123.93261719 C234.29724457 122.80371567 234.30396179 121.67481415 234.31088257 120.51170349 C234.32990621 116.77338274 234.33378922 113.03524117 234.3359375 109.296875 C234.34236316 106.6985873 234.34909135 104.10030033 234.35610962 101.50201416 C234.36809388 96.05129004 234.37187495 90.60063703 234.37060547 85.14990234 C234.36940546 78.86279829 234.3904799 72.5760383 234.4220928 66.28902125 C234.45147232 60.22883206 234.45857947 54.16882854 234.45738602 48.10855865 C234.45974412 45.53619229 234.46857933 42.9638233 234.48405075 40.39150238 C234.50368616 36.78903341 234.49788086 33.18744463 234.48583984 29.58496094 C234.49707886 28.52597092 234.50831787 27.4669809 234.51989746 26.37590027 C234.45665633 18.91515483 233.38738726 13.87527953 228.43130302 8.20536041 C220.86634837 1.74041923 210.4579137 3.16073619 201.11914062 3.22363281 C199.09302135 3.21549527 197.06691095 3.20480808 195.04081726 3.19177246 C189.5551611 3.1644852 184.07018413 3.17499731 178.58451653 3.19404697 C172.83517545 3.20927119 167.08589129 3.19514036 161.33654785 3.18572998 C151.68275547 3.17482383 142.02923878 3.18917427 132.37548828 3.21777344 C121.22525198 3.25042513 110.07567401 3.23984745 98.92545366 3.206815 C89.3404403 3.17955942 79.75562476 3.17575846 70.17058516 3.19144702 C64.45096011 3.200786 58.73164419 3.20209013 53.01203918 3.18222809 C47.63385621 3.16485519 42.25651937 3.1769917 36.87842751 3.21159363 C34.90844437 3.21950571 32.93838963 3.21728528 30.96843529 3.20401764 C17.93499656 2.80094114 17.93499656 2.80094114 6.52005768 8.33637619 C4.06582433 11.02240653 2.52031942 13.69495779 1 17 C0.67 17 0.34 17 0 17 C0 11.39 0 5.78 0 0 Z " fill="#0B0B0B" transform="translate(0,0)"/>
<path d="M0 0 C6.11575099 3.53317113 10.63077272 8.7474303 13.02734375 15.44921875 C14.38572241 23.95053238 14.91384249 33.44914757 9.921875 40.796875 C4.51825578 47.18297044 -1.09941069 51.02098821 -9.51953125 51.94140625 C-16.08090086 52.1972584 -21.33112405 51.70071525 -26.625 47.625 C-30.91844373 43.62912168 -34.67489097 39.56318141 -35.625 33.625 C-35.69921599 26.07970782 -34.10197327 21.35032851 -28.875 15.75 C-28.4625 15.37875 -28.05 15.0075 -27.625 14.625 C-25.15699953 15.77673355 -23.57716435 16.67283565 -21.625 18.625 C-21.625 19.945 -21.625 21.265 -21.625 22.625 C-22.285 22.625 -22.945 22.625 -23.625 22.625 C-24.59347302 25.53041905 -24.82082812 27.59137454 -24.875 30.625 C-24.90078125 31.49125 -24.9265625 32.3575 -24.953125 33.25 C-24.56079115 36.08974981 -23.7186911 36.77373629 -21.625 38.625 C-21.625 39.285 -21.625 39.945 -21.625 40.625 C-15.82363678 42.24885788 -10.5676179 42.23007771 -4.8125 40.4375 C-0.42032658 37.93998962 1.78068871 35.40793388 3.375 30.625 C3.98377118 24.44746954 3.98366284 18.72859933 0.7421875 13.28515625 C-2.75979318 9.03275113 -6.60801942 7.87183329 -11.9765625 7.21484375 C-18.78834952 6.93041153 -23.63601124 7.17039173 -28.9765625 11.62890625 C-30.625 12.625 -30.625 12.625 -32.72265625 12.39453125 C-35.31884037 11.34432946 -36.27222885 10.04574838 -37.625 7.625 C-36.36748595 3.85245785 -35.13099175 3.45019524 -31.75 1.5 C-30.86570312 0.98179688 -29.98140625 0.46359375 -29.0703125 -0.0703125 C-20.74093927 -4.51441898 -8.46283123 -3.80773775 0 0 Z " fill="#F8F7FE" transform="translate(70.625,43.375)"/>
<path d="M0 0 C24.625 0 24.625 0 30.8125 5.5 C34.97245015 10.25422875 35.44665861 13.00079967 35.30859375 19.140625 C34.84958536 23.39371538 33.71170912 26.66734879 31 30 C28.72515297 31.74286721 26.63344192 32.78081392 24 34 C23.01 34.495 23.01 34.495 22 35 C17.33091139 35.13996069 12.67201378 35.04247285 8 35 C8 39.62 8 44.24 8 49 C5.36 49 2.72 49 0 49 C0 32.83 0 16.66 0 0 Z " fill="#F9F8FE" transform="translate(98,43)"/>
<path d="M0 0 C2.70432897 1.72093662 4.18487884 3.52927138 5.96484375 6.19921875 C6.19189453 8.92651367 6.19189453 8.92651367 6.16015625 12.1796875 C6.15371094 13.34306641 6.14726562 14.50644531 6.140625 15.70507812 C6.12386719 16.92001953 6.10710937 18.13496094 6.08984375 19.38671875 C6.08082031 20.61326172 6.07179687 21.83980469 6.0625 23.10351562 C6.03890392 26.1356117 6.00598216 29.16731813 5.96484375 32.19921875 C2.29817708 32.19921875 -1.36848958 32.19921875 -5.03515625 32.19921875 C-6.02515625 32.69421875 -6.02515625 32.69421875 -7.03515625 33.19921875 C-12.5501462 33.82087623 -16.67099233 34.26326661 -21.16015625 30.76171875 C-21.77890625 29.91609375 -22.39765625 29.07046875 -23.03515625 28.19921875 C-23.36515625 27.86921875 -23.69515625 27.53921875 -24.03515625 27.19921875 C-24.55978659 22.7398609 -24.36420808 20.71215248 -21.91015625 16.88671875 C-15.97297874 11.33674847 -9.74221197 11.95237355 -2.03515625 12.19921875 C-2.37960506 9.7265511 -2.37960506 9.7265511 -3.03515625 7.19921875 C-6.0251345 5.70422962 -8.735584 6.08344429 -12.03515625 6.19921875 C-13.02515625 6.52921875 -14.01515625 6.85921875 -15.03515625 7.19921875 C-15.03515625 7.85921875 -15.03515625 8.51921875 -15.03515625 9.19921875 C-17.67515625 9.19921875 -20.31515625 9.19921875 -23.03515625 9.19921875 C-22.20933645 5.16187753 -21.37522038 3.4801413 -18.16015625 0.82421875 C-12.76081438 -1.8697925 -5.62422682 -2.21298752 0 0 Z " fill="#F7F6FE" transform="translate(159.03515625,59.80078125)"/>
<path d="M0 0 C2.64 0 5.28 0 8 0 C10.80325955 6.68646335 13.57361763 13.37974695 16.203125 20.13671875 C16.85385421 21.97788606 16.85385421 21.97788606 18 23 C18.20681396 22.3387915 18.41362793 21.67758301 18.62670898 20.99633789 C19.56043664 18.01737694 20.4989024 15.03992995 21.4375 12.0625 C21.76298828 11.02158203 22.08847656 9.98066406 22.42382812 8.90820312 C22.73642578 7.91884766 23.04902344 6.92949219 23.37109375 5.91015625 C23.65911865 4.99371338 23.94714355 4.07727051 24.24389648 3.13305664 C25 1 25 1 26 0 C28.67058851 -0.14115161 31.32432238 -0.04247107 34 0 C31.70394281 6.68009138 29.36679053 13.34464702 27 20 C26.65807617 20.96615234 26.31615234 21.93230469 25.96386719 22.92773438 C24.9502604 25.77042763 23.91577019 28.60465365 22.875 31.4375 C22.56304687 32.31817139 22.25109375 33.19884277 21.9296875 34.10620117 C19.75122104 39.95005092 17.35846833 43.82610771 11.984375 47.3046875 C9.62732771 48.13058202 7.74125879 48.19827232 5.25 48.125 C4.05117187 48.09792969 4.05117187 48.09792969 2.828125 48.0703125 C2.22484375 48.04710937 1.6215625 48.02390625 1 48 C1 45.69 1 43.38 1 41 C1.62648437 40.89042969 2.25296875 40.78085938 2.8984375 40.66796875 C3.71570313 40.50941406 4.53296875 40.35085937 5.375 40.1875 C6.18710938 40.03667969 6.99921875 39.88585937 7.8359375 39.73046875 C10.35820641 39.12455058 10.35820641 39.12455058 12 36 C11.67196862 31.07586411 10.40213016 27.00608342 8.49609375 22.48046875 C7.75649414 20.7005957 7.75649414 20.7005957 7.00195312 18.88476562 C6.48097567 17.65212937 5.95948558 16.41970968 5.4375 15.1875 C4.41074955 12.74537074 3.39011406 10.30085039 2.37109375 7.85546875 C1.91661865 6.77934326 1.46214355 5.70321777 0.99389648 4.59448242 C0 2 0 2 0 0 Z " fill="#F8F6FE" transform="translate(170,60)"/>
<path d="M0 0 C12.46024735 -0.41077739 12.46024735 -0.41077739 17 3 C19.70505765 7.05758647 19.74174825 10.24114327 19 15 C17.375 18.0625 17.375 18.0625 14 20 C9.25063605 20.40877878 4.7851261 20.22360402 0 20 C0 13.4 0 6.8 0 0 Z " fill="#6039F4" transform="translate(106,50)"/>
<path d="M0 0 C0.99773437 0.02320312 1.99546875 0.04640625 3.0234375 0.0703125 C4.52777344 0.09738281 4.52777344 0.09738281 6.0625 0.125 C6.83335937 0.14820312 7.60421875 0.17140625 8.3984375 0.1953125 C8.0859375 3.5703125 8.0859375 3.5703125 7.3984375 7.1953125 C3.32994341 9.90764189 1.23366966 9.50231137 -3.6015625 9.1953125 C-4.2615625 8.5353125 -4.9215625 7.8753125 -5.6015625 7.1953125 C-5.18473173 3.0270048 -4.61912383 0.34678107 0 0 Z " fill="#5F37F4" transform="translate(148.6015625,77.8046875)"/>
</svg>
