<?xml version="1.0" encoding="UTF-8"?>
<svg version="1.1" xmlns="http://www.w3.org/2000/svg" width="247" height="151">
<path d="M0 0 C81.51 0 163.02 0 247 0 C247 49.83 247 99.66 247 151 C165.49 151 83.98 151 0 151 C0 101.17 0 51.34 0 0 Z " fill="#FEFDFD" transform="translate(0,0)"/>
<path d="M0 0 C0.7139946 -0.0004985 1.4279892 -0.00099701 2.16362 -0.00151062 C3.67413108 0.00082848 5.18464616 0.01054748 6.69506836 0.02709961 C8.99303591 0.05059027 11.28983429 0.04767237 13.58789062 0.04101562 C15.0586006 0.0465964 16.52930571 0.05370879 18 0.0625 C19.02218376 0.06113289 19.02218376 0.06113289 20.0650177 0.05973816 C27.26477658 0.16523097 32.79438322 2.46386156 38.69921875 6.36328125 C42.09552276 10.21242579 42.03446388 14.09369882 42.390625 19 C42.7851813 22.02160204 43.94192489 23.90306985 45.69921875 26.36328125 C48.58447372 31.83008015 48.39432454 37.23090581 47.08203125 43.14453125 C44.93336344 50.06590366 41.86498176 54.48199754 35.69921875 58.36328125 C30.82779793 60.34793418 25.94331602 60.73192058 20.73828125 61.1171875 C18.70726422 61.14947349 18.70726422 61.14947349 17.69921875 62.36328125 C17.41678628 63.68820006 17.18619668 65.02430628 16.98046875 66.36328125 C16.85285156 67.16765625 16.72523437 67.97203125 16.59375 68.80078125 C16.46355469 69.64640625 16.33335938 70.49203125 16.19921875 71.36328125 C15.94252417 73.03052524 15.68229418 74.69723003 15.41796875 76.36328125 C15.30388672 77.10578125 15.18980469 77.84828125 15.07226562 78.61328125 C14.69921875 80.36328125 14.69921875 80.36328125 13.69921875 81.36328125 C11.00267021 81.43647746 8.33230417 81.45570662 5.63671875 81.42578125 C4.87810547 81.42126953 4.11949219 81.41675781 3.33789062 81.41210938 C1.45830004 81.40028805 -0.42125024 81.38235203 -2.30078125 81.36328125 C-3.75684644 76.84235157 -2.57110966 73.84679329 -1.30078125 69.36328125 C-2.99847656 69.38068359 -2.99847656 69.38068359 -4.73046875 69.3984375 C-6.21223794 69.40781579 -7.6940089 69.41691595 -9.17578125 69.42578125 C-9.92214844 69.43416016 -10.66851562 69.44253906 -11.4375 69.45117188 C-17.07421875 69.4765625 -17.07421875 69.4765625 -19.30078125 68.36328125 C-17.94946774 55.22626347 -16.24036232 42.15587943 -14.32397461 29.08959961 C-14.0130525 26.95433749 -13.70784658 24.81823628 -13.40795898 22.68139648 C-12.96895634 19.55394636 -12.51378112 16.42924354 -12.0546875 13.3046875 C-11.92332901 12.34857071 -11.79197052 11.39245392 -11.65663147 10.40736389 C-11.45643654 9.08338844 -11.45643654 9.08338844 -11.25219727 7.73266602 C-11.14053726 6.95866959 -11.02887726 6.18467316 -10.91383362 5.38722229 C-9.20908104 -0.24087553 -5.15307493 -0.06902771 0 0 Z " fill="#033388" transform="translate(107.30078125,35.63671875)"/>
<path d="M0 0 C81.51 0 163.02 0 247 0 C247 49.83 247 99.66 247 151 C165.49 151 83.98 151 0 151 C0 101.17 0 51.34 0 0 Z M9.25 9.875 C8.67765625 10.53242188 8.1053125 11.18984375 7.515625 11.8671875 C4.79028529 15.7023305 3.75091648 19.20393235 3.73930359 23.88204956 C3.73221878 24.83802032 3.72513397 25.79399109 3.71783447 26.77893066 C3.72031189 27.81594116 3.72278931 28.85295166 3.7253418 29.92138672 C3.72023087 31.02277985 3.71511993 32.12417297 3.70985413 33.25894165 C3.69595597 36.89924557 3.69691518 40.5393602 3.69921875 44.1796875 C3.6953318 46.71168081 3.69099713 49.24367347 3.68623352 51.77566528 C3.6787707 57.08337791 3.67892453 62.39102112 3.68432617 67.69873047 C3.69036308 73.82279462 3.67805992 79.94662886 3.6567561 86.0706538 C3.63697817 91.97438218 3.63397092 97.87803968 3.63749123 103.78180313 C3.6369781 106.28800115 3.63174194 108.79420284 3.62167931 111.30038071 C3.60932829 114.80704142 3.6160993 118.31317185 3.62768555 121.81982422 C3.62004181 122.85278625 3.61239807 123.88574829 3.60452271 124.95001221 C3.6583419 132.32822635 4.84406956 137.96210454 9.75 143.75 C10.19859375 144.30171875 10.6471875 144.8534375 11.109375 145.421875 C16.41317426 149.84901322 21.90902269 150.43951952 28.53257751 150.38768005 C29.36595864 150.39306559 30.19933977 150.39845113 31.05797487 150.40399987 C33.83689797 150.41825166 36.61534285 150.41118264 39.39428711 150.40405273 C41.39217002 150.40975774 43.39004967 150.41672251 45.38792419 150.42485046 C50.8052765 150.44278221 56.22246683 150.44161346 61.63983989 150.43590808 C66.16523165 150.43281635 70.6905923 150.4389085 75.21597964 150.44494683 C85.89295484 150.45899042 96.56985003 150.45743203 107.24682617 150.44604492 C118.25603453 150.43456283 129.26499932 150.44864138 140.27417558 150.4754414 C149.73255501 150.49760286 159.19085799 150.50423478 168.64926153 150.49836498 C174.2956164 150.49499542 179.94181512 150.49741064 185.58814812 150.51461601 C190.89798964 150.53009014 196.20747045 150.52612418 201.51729774 150.50731087 C203.46352444 150.50362636 205.40977789 150.50672941 207.35597992 150.51719666 C210.01788053 150.53041774 212.67858893 150.51884948 215.34043884 150.50120544 C216.10611473 150.51081045 216.87179061 150.52041546 217.66066879 150.53031152 C224.0334119 150.44371244 229.14248989 148.41619581 234.0234375 144.2890625 C234.46945313 143.73992187 234.91546875 143.19078125 235.375 142.625 C235.83648437 142.08101562 236.29796875 141.53703125 236.7734375 140.9765625 C240.52005284 134.93902313 240.30201369 128.75470928 240.30639648 121.88916016 C240.31888176 120.22463051 240.31888176 120.22463051 240.33161926 118.526474 C240.35568339 114.86396765 240.36448661 111.20163948 240.37109375 107.5390625 C240.38006193 104.98847399 240.38918381 102.43788602 240.39845276 99.88729858 C240.41493497 94.54268791 240.42267452 89.1981438 240.42553711 83.85351562 C240.42917176 77.69012887 240.45907017 71.52724024 240.50094169 65.36400568 C240.53990961 59.41810489 240.55113144 53.47235279 240.55226326 47.5263176 C240.55646521 45.00417756 240.56889834 42.48203709 240.58978081 39.95998001 C240.61668977 36.42942352 240.61187 32.9002362 240.59936523 29.36962891 C240.61419952 28.33248245 240.62903381 27.295336 240.64431763 26.22676086 C240.56551377 18.39811191 238.38281675 13.63825394 233.0859375 7.94140625 C232.52132812 7.48636719 231.95671875 7.03132812 231.375 6.5625 C230.80523437 6.08941406 230.23546875 5.61632812 229.6484375 5.12890625 C225.69668106 2.42260859 221.43925229 2.85452623 216.85905457 2.85955811 C216.0195129 2.85658698 215.17997123 2.85361586 214.31498891 2.8505547 C211.49147675 2.84185764 208.66800693 2.84035861 205.84448242 2.83886719 C203.82424326 2.83423974 201.80400497 2.82921518 199.7837677 2.82382202 C194.28785032 2.81068925 188.79194517 2.80425139 183.29601455 2.79981136 C179.86384335 2.79688215 176.43167551 2.79277764 172.999506 2.78830719 C162.26525519 2.77463016 151.53101203 2.76496442 140.79675311 2.7611053 C128.39773397 2.75662342 115.99882502 2.7390703 103.59983939 2.7101047 C94.02099353 2.6885026 84.4421787 2.67840181 74.86330873 2.67706418 C69.13984432 2.67601513 63.41648346 2.67008599 57.69304466 2.65224457 C52.30946238 2.63578929 46.92606175 2.63359605 41.5424633 2.64238358 C39.56636825 2.6431553 37.59026353 2.63879342 35.61419296 2.62892532 C32.91654352 2.61624373 30.21954113 2.622062 27.52189636 2.63250732 C26.73988442 2.62445092 25.95787248 2.61639452 25.15216321 2.60809398 C18.28429689 2.6702895 13.67860475 4.65412192 9.25 9.875 Z " fill="#0A0A0A" transform="translate(0,0)"/>
<path d="M0 0 C3.9259022 2.61726813 4.87552956 5.59329152 6 10 C7.08697863 17.09124154 5.37564811 23.73093923 2 30 C-3.65417018 36.85614128 -9.7358297 38.71576314 -18.375 39.5625 C-19.22835937 39.62566406 -20.08171875 39.68882813 -20.9609375 39.75390625 C-22.99195453 39.78619224 -22.99195453 39.78619224 -24 41 C-24.28243247 42.32491881 -24.51302207 43.66102503 -24.71875 45 C-24.91017578 46.2065625 -24.91017578 46.2065625 -25.10546875 47.4375 C-25.23566406 48.283125 -25.36585937 49.12875 -25.5 50 C-25.75669458 51.66724399 -26.01692457 53.33394878 -26.28125 55 C-26.39533203 55.7425 -26.50941406 56.485 -26.62695312 57.25 C-27 59 -27 59 -28 60 C-30.69654854 60.07319621 -33.36691458 60.09242537 -36.0625 60.0625 C-37.20041992 60.05573242 -37.20041992 60.05573242 -38.36132812 60.04882812 C-40.24091871 60.0370068 -42.12046899 60.01907078 -44 60 C-45.45606519 55.47907032 -44.27032841 52.48351204 -43 48 C-48.28 48 -53.56 48 -59 48 C-59 47.67 -59 47.34 -59 47 C-53.72 47 -48.44 47 -43 47 C-42.70996094 44.76089844 -42.70996094 44.76089844 -42.4140625 42.4765625 C-42.15148436 40.52598202 -41.88843934 38.57546435 -41.625 36.625 C-41.49867187 35.64015625 -41.37234375 34.6553125 -41.2421875 33.640625 C-41.04882812 32.22910156 -41.04882812 32.22910156 -40.8515625 30.7890625 C-40.73635254 29.91975098 -40.62114258 29.05043945 -40.50244141 28.15478516 C-40 26 -40 26 -38 24 C-36.17163086 23.74462891 -36.17163086 23.74462891 -33.96484375 23.7265625 C-33.15942139 23.70899902 -32.35399902 23.69143555 -31.52416992 23.67333984 C-30.67056885 23.6573877 -29.81696777 23.64143555 -28.9375 23.625 C-20.07273189 23.2896076 -13.19049777 22.53487521 -6.6875 16 C-3.01895243 11.33001047 -1.57495649 5.64205 0 0 Z " fill="#3286C7" transform="translate(149,57)"/>
<path d="M0 0 C0.98742187 -0.00386719 1.97484375 -0.00773437 2.9921875 -0.01171875 C4.0234375 -0.00011719 5.0546875 0.01148438 6.1171875 0.0234375 C7.12523437 0.01183594 8.13328125 0.00023437 9.171875 -0.01171875 C15.64526147 0.0134369 21.00536835 0.91664939 26.9921875 3.3984375 C27.42710459 10.50208336 25.66907073 15.48153962 21.3671875 21.0859375 C16.50106119 26.30827392 10.57375143 28.50314152 3.51953125 29.0078125 C1.65680676 29.07317125 -0.20666011 29.11990559 -2.0703125 29.1484375 C-3.03130859 29.17808594 -3.99230469 29.20773438 -4.98242188 29.23828125 C-7.32429881 29.30818802 -9.66522664 29.36126886 -12.0078125 29.3984375 C-11.4238983 25.12457811 -10.81224997 20.85514478 -10.1953125 16.5859375 C-10.02966797 15.37099609 -9.86402344 14.15605469 -9.69335938 12.90429688 C-9.52255859 11.74091797 -9.35175781 10.57753906 -9.17578125 9.37890625 C-9.02391357 8.30535889 -8.8720459 7.23181152 -8.71557617 6.12573242 C-7.37182422 0.94772171 -5.15351801 0.01958094 0 0 Z " fill="#012169" transform="translate(121.0078125,52.6015625)"/>
</svg>
